<mxfile host="app.diagrams.net" modified="2024-04-21T12:37:08.910Z" agent="Mozilla/5.0 (Windows NT 10.0; Win64; x64) AppleWebKit/537.36 (KHTML, like Gecko) Chrome/124.0.0.0 Safari/537.36" version="24.2.5" etag="EXqQSKQPWlqjrVtsDWu5" type="github">
  <diagram name="第 1 页" id="fVpKT2hx3NOa2XjBmA7X">
    <mxGraphModel>
      <root>
        <mxCell id="0" />
        <mxCell id="1" parent="0" />
      </root>
    </mxGraphModel>
  </diagram>
</mxfile>
